<svg xmlns="http://www.w3.org/2000/svg" width="100" height="100" viewBox="0 0 100 100">
  <style>
    .icon-bg { fill: #6c63ff; }
    .icon-screen { fill: #ffffff; }
    .icon-share { fill: #ffffff; }
  </style>
  <circle class="icon-bg" cx="50" cy="50" r="48" />
  <rect class="icon-screen" x="25" y="25" width="50" height="35" rx="4" />
  <path class="icon-share" d="M65,65 L50,58 L50,72 L65,65 Z M40,65 C40,69.418 36.418,73 32,73 C27.582,73 24,69.418 24,65 C24,60.582 27.582,57 32,57 C36.418,57 40,60.582 40,65 Z M76,65 C76,69.418 72.418,73 68,73 C63.582,73 60,69.418 60,65 C60,60.582 63.582,57 68,57 C72.418,57 76,60.582 76,65 Z M76,35 C76,39.418 72.418,43 68,43 C63.582,43 60,39.418 60,35 C60,30.582 63.582,27 68,27 C72.418,27 76,30.582 76,35 Z M65,35 L50,42 L50,28 L65,35 Z" />
</svg>

